<?xml version="1.0" encoding="UTF-8"?>
<svg id="Camada_2" data-name="Camada 2" xmlns="http://www.w3.org/2000/svg" viewBox="0 0 19.1 16">
  <defs>
    <style>
      .cls-1 {
        fill: #c89d3e;
      }
    </style>
  </defs>
  <g id="Camada_1-2" data-name="Camada 1">
    <path class="cls-1" d="M4.44.04c1.76-.21,3.03.38,4.36,1.44.17.13.64.7.75.72.17.03.83-.77,1.03-.93,4.11-3.3,9.49.42,8.36,5.44-.71,3.16-4.27,6.15-6.86,7.89-.41.28-2.01,1.34-2.37,1.4-.41.07-1.65-.77-2.07-1.03C4.04,12.71-1.69,7.95.47,3.08,1.14,1.58,2.78.24,4.44.04ZM4.44.67c-1.34.18-2.65,1.2-3.27,2.37-2.39,4.47,3.2,9.14,6.53,11.26.36.23,1.71,1.14,2.02,1.07.34-.09,2.2-1.38,2.62-1.67,2.39-1.69,5.8-4.58,6.12-7.68.45-4.28-3.84-6.93-7.4-4.37-.35.26-1.23,1.3-1.53,1.3-.15,0-1.31-1.18-1.63-1.4-1.07-.74-2.15-1.05-3.47-.87Z"/>
  </g>
</svg>