<?xml version="1.0" encoding="UTF-8"?>
<svg id="Layer_1" xmlns="http://www.w3.org/2000/svg" version="1.1" viewBox="0 0 800 800">
  <!-- Generator: Adobe Illustrator 29.8.2, SVG Export Plug-In . SVG Version: 2.1.1 Build 3)  -->
  <defs>
    <style>
      .st0 {
        fill: #cea751;
      }
    </style>
  </defs>
  <path class="st0" d="M612.6,386.5h-95.2l-39.6-20.8c-48.7-25.7-106.9-25.7-155.6,0l-39.6,20.8h-95.2c-7.4,0-13.5,6-13.5,13.5s6,13.5,13.5,13.5h95.2l39.6,20.8c24.4,12.8,51.1,19.2,77.8,19.2s53.5-6.4,77.8-19.2l39.6-20.8h95.2c7.4,0,13.5-6,13.5-13.5s-6-13.5-13.5-13.5ZM465.3,410.4c-40.9,21.5-89.7,21.5-130.6,0l-19.9-10.5,19.9-10.5c40.9-21.5,89.7-21.5,130.6,0l19.9,10.5-19.9,10.5Z"/>
  <path class="st0" d="M687.2,498c-3.8-6.4-12-8.6-18.4-4.8-68.1,39.9-142,66.6-219.9,79.4-32.4,5.3-65.3,5.3-97.7,0-118.3-19.4-228-71.2-317.9-150.1l168.9-163.6c13.9-13.5,30.3-23.4,48.7-29.4,7.1-2.3,10.9-9.9,8.6-17-2.3-7.1-9.9-10.9-17-8.6-22.3,7.3-42.2,19.3-59.1,35.6L4.1,413.2C1.4,415.8,0,419.4,0,423.1c0,3.7,1.6,7.2,4.4,9.7,95.8,87.8,214.2,145.3,342.4,166.3,17.7,2.9,35.4,4.3,53.2,4.3s35.6-1.4,53.2-4.3c81.1-13.3,158.2-41.1,229.2-82.7,6.4-3.8,8.6-12,4.8-18.4Z"/>
  <path class="st0" d="M795.9,413.2l-179.3-173.7c-48.9-47.4-124.3-56.7-183.3-22.8l-33.4,19.2-33.4-19.2c-19-10.9-39.7-17.6-61.4-19.7-7.4-.7-14,4.7-14.7,12.1s4.7,14,12.1,14.7c17.9,1.8,35,7.2,50.6,16.3l40.1,23.1c4.2,2.4,9.3,2.4,13.4,0l40.1-23.1c48.6-28,110.8-20.3,151.1,18.8l168.9,163.6c-20.1,17.6-41.4,34.1-63.6,49-6.2,4.2-7.8,12.5-3.6,18.7,2.6,3.9,6.8,5.9,11.2,5.9s5.2-.7,7.5-2.3c27.2-18.3,53.2-38.9,77.3-61,2.7-2.5,4.3-6,4.4-9.7,0-3.7-1.4-7.3-4.1-9.9Z"/>
</svg>