<?xml version="1.0" encoding="UTF-8"?>
<svg id="Camada_2" data-name="Camada 2" xmlns="http://www.w3.org/2000/svg" viewBox="0 0 26.17 26.73">
  <defs>
    <style>
      .cls-1 {
        fill: #cda344;
      }

      .cls-2 {
        fill: #cba142;
      }

      .cls-3 {
        fill: #c99e3e;
      }

      .cls-4 {
        fill: #c99f40;
      }

      .cls-5 {
        fill: #c89e3e;
      }

      .cls-6 {
        fill: #c89e3f;
      }
    </style>
  </defs>
  <g id="Camada_1-2" data-name="Camada 1">
    <g>
      <path class="cls-3" d="M11.26,8.14c.2.06.23.45-.01.51-.12.03-.41-.1-.61-.1-1.69-.05-3.9-.13-5.55,0-2.46.19-1.14,1.97-.66,3.44l15.13-.1c.18-.93,1.45-2.77-.04-3.24-.69-.22-3.4-.14-4.18.01-.87.17-2.89,1.6-3.6.35-.92-1.63,2.04-2.81,3.16-3.3.18-.08.58-.07.28-.24-.7-.39-.69.1-1.05.41-.86.73-1.71.29-1.99.43-.05.02-.64.73-.66.79-.09.21-.14.89-.17.93-.02.02-.4.02-.41,0-.06-.05,0-.84.08-1.02.12-.31.64-.74.84-1.04.21-.32.63-1.22.8-1.39.09-.09,2.29-.8,2.52-.83.35-.04,1.46.21,1.61.1.05-.03-.91-.96-.36-.94.49.02.88,1.12,1.3,1.31.28.12.78-.83,1.05-.47.19.24-.85,1.03-1.08,1.17-1.05.67-5.17,2.13-5.54,3.04-.2.49-.06,1.04.52,1.1,1.14.12,4.41-1.84,5.8-2.2,1.17-.31,2.43-.19,3.64-.54.65-.19,3.66-2.05,4.08-1.62.01.01.01.4,0,.42-.02.02-.32,0-.44.03-1.6.43-2.7,1.57-4.43,1.85s-2.52.14-4.29.94c-.12.05-.36.08-.35.22h2.88c.21,0,.75.39.89.57.47.63.3,1.11.11,1.78-.3,1.05-.63,1.25-.63,2.4v1.73c.63-.09,2.05-1.52,2.56-1.47.17.02.22.1.31.22.13.17,1.1,1.73,1.11,1.83.02.26-.16.36-.32.52-.4.39-3.24,2.3-3.24,2.51v8.37c0,.18-.42.18-.42,0v-8.42H3.99v8.42c0,.18-.42.18-.42,0v-8.37c0-.22-3.15-2.31-3.53-2.69-.08-.14-.02-.35.04-.5.05-.12,1.07-1.71,1.15-1.78.07-.06.1-.1.21-.11.43-.04,2.42,1.62,2.56,1.47-.14-.65.15-1.55.1-2.13-.1-1.09-1.5-2.63-.63-3.78.15-.2.78-.57,1-.57h6.8ZM17.37,4.48c-.11-.15-1.83-.18-2.14-.3-.61.98-.36.69.4.83.18.03.4.16.53.16.12,0,1.27-.59,1.2-.69ZM14.55,4.48c-.07-.05-1.54.36-1.61.41-.05.03-.53,1.02-.48,1.06.11.1.85-.06,1.04-.16s1.16-1.22,1.05-1.3ZM19.57,16.61c-.08-.54-.13-4.12-.31-4.24H4.72s-.21.13-.21.13l-.2,4.11h15.27ZM23.44,15.35l-1.1-1.77c-.4.39-2.27,1.29-2.35,1.72-.06.33-.01,2.18.21,2.35.16.12,2.77-2.21,3.24-2.3ZM3.97,15.16c-.07-.12-2.19-1.49-2.33-1.49-.29,0-1,1.32-1.2,1.62.46.23,2.96,2.37,3.19,2.35s.44-2.33.34-2.49ZM19.57,17.03H4.3s-.14.73.05.73h14.95s.35-.09.37-.11c.02-.02-.08-.6-.11-.63Z"/>
      <path class="cls-5" d="M16.73,0c2.94.28,5.92.63,8.86.18.86.53-.96.61-1.36.64-2.68.15-5.33-.26-7.98-.24l-4.84,2.27c-.54,1.21-1.31,2.45-1.75,3.69-.07.2-.21.53-.23.72-.02.24.11.51.09.61-.05.25-.46.29-.52-.2-.09-.85,1.29-3.77,1.76-4.63.23-.41.39-.63.82-.86.62-.34,4.68-2.15,5.14-2.19Z"/>
      <path class="cls-2" d="M7.23,22.1c.03-.21.17-.51.41-.36.1.07.57,1.33.85,1.45.12-.31.47-1.16.68-1.36.13-.12.18-.13.36-.11v2.04s-.11.17-.21.11c-.22-.16-.05-1.1-.11-1.41-.29.13-.55,1.23-.89,1.15-.21-.05-.47-1.14-.78-1.25-.06.33.12,1.36-.11,1.52-.09.07-.21-.08-.21-.11,0-.51-.06-1.2,0-1.67Z"/>
      <path class="cls-4" d="M14.87,21.78c.1-.33,1.25-.11,1.54.03.58.29.68,1.05.39,1.58-.33.6-1.93.68-1.93.37,0-.42-.09-1.71,0-1.99ZM15.18,23.61c1.97.26,1.99-1.95,0-1.67v1.67Z"/>
      <path class="cls-1" d="M14.34,23.35c-.15.72-1.51.79-1.75.08-.07-.22-.2-1.63-.13-1.7.01-.01.27-.01.3,0,.38.23-.44,2.21.96,1.83.61-.16.09-1.66.41-1.89.09-.07.21.08.21.11,0,.42.07,1.22,0,1.57Z"/>
      <path class="cls-6" d="M10.16,21.63c.13-.17.19,0,.21.16.08.61-.24,1.82.68,1.84,1.14.02.09-1.76.89-1.99v1.73c0,.46-.92.67-1.33.5-.09-.04-.44-.35-.44-.39,0-.27-.06-1.76,0-1.83Z"/>
    </g>
  </g>
</svg>