<?xml version="1.0" encoding="UTF-8"?>
<svg id="Camada_2" data-name="Camada 2" xmlns="http://www.w3.org/2000/svg" viewBox="0 0 20.81 27.08">
  <defs>
    <style>
      .cls-1 {
        fill: #c99e40;
      }

      .cls-2 {
        fill: #c99f40;
      }

      .cls-3 {
        fill: #cba143;
      }

      .cls-4 {
        fill: #c89e3e;
      }

      .cls-5 {
        fill: #c89e3f;
      }
    </style>
  </defs>
  <g id="Camada_1-2" data-name="Camada 1">
    <g>
      <path class="cls-4" d="M8.55,18.6c.14.27.49.28.69.51.67.77-.33,1.21-.46,1.75-.32,1.39.64,2.92-1.4,3.51s-3.83-.27-5.68-.22c-1.74.05-.96,2.61-1.3,2.86-.08.06-.29.07-.32.05-.21-.19.02-1.88.13-2.22.58-1.81,2.61-.9,4-.82.78.05,3.24.13,3.76-.42.7-.74.14-2,.29-2.74.13-.63,1.4-1.27.21-1.73-.37-.14-1.33-.02-1.18-.49.06-.18,1.44-.2,1.63-.89.16-.59-.85-1.64-.38-2.36s2.96-.11,2.12-1.69c-1-1.89-3.13-4-3.56-6.16-.15-.76-.05-1.45-.12-2.18-.16-1.7-1.34-3.56-2.25-4.96-.13-.41.14-.57.42-.21.78,1.01,2.09,3.62,2.24,4.87.08.7,0,1.58.12,2.28.2,1.09,1.04,2.35,1.62,3.29.41.68,2.06,2.85,2.13,3.42.2,1.61-2.11,1.2-2.35,1.61-.31.51,1.44,2.58-.36,2.93Z"/>
      <path class="cls-5" d="M11.48,17.45s-.03-.26.06-.32c.58-.4,3.92-.34,4.8-.41,1.74-.13,3.94-.91,3.6-3.08-.2-1.26-2.46-1.9-3.23-.74-.66.99.59,1.09.63,1.26.11.48-.9.19-1.1-.27-.4-.96.4-1.91,1.35-1.99,1.25-.11,2.66.44,2.78,1.83.34,3.85-4.94,3.34-7.37,3.51-.26.02-1.42.31-1.52.21Z"/>
      <path class="cls-5" d="M18.88,19.57c1.7-.27,2.62,1.94,1.32,2.99-.71.58-1.83.41-2.34-.35-.15-.22-.29-.79.05-.78.15,0,.27.99,1.15,1.05,1.65.12,1.8-2.35.18-2.5-.3-.03-1,.36-1.07.03-.05-.23.54-.42.7-.44Z"/>
      <path class="cls-1" d="M14.72,22.05s.61-.05.71-.39c.47-1.51-2.93-1.16-3.67-1.42-.4-.14-.4-.56.14-.45.85.17,1.65.13,2.44.28s1.84.78,1.44,1.74c-.31.75-1.33.57-1.07.24Z"/>
      <path class="cls-3" d="M16.5,18.81s.05.3-.06.32c-.49.07-1.62-.19-2.18-.22-.61-.03-1.28.06-1.88,0-.1,0-1.11-.12-.89-.42l5.02.31Z"/>
      <path class="cls-2" d="M5.73,9.61c-.02.51-1.12.32-1.47.27s-1.85-.64-1.77-1.05c.07-.36.82.31.97.38.75.35,1.43.47,2.27.4Z"/>
    </g>
  </g>
</svg>