<svg width="2573" height="624" viewBox="0 0 2573 624" fill="none" xmlns="http://www.w3.org/2000/svg">
<path d="M250.67 218.545C248.472 199.977 239.554 185.562 223.918 175.301C208.281 165.04 189.102 159.909 166.381 159.909C149.767 159.909 135.23 162.597 122.77 167.972C110.432 173.347 100.781 180.737 93.8182 190.143C86.9773 199.55 83.5568 210.239 83.5568 222.21C83.5568 232.227 85.9389 240.839 90.7031 248.047C95.5895 255.132 101.82 261.057 109.393 265.821C116.967 270.463 124.908 274.311 133.214 277.365C141.521 280.297 149.156 282.679 156.119 284.511L194.233 294.773C204.006 297.338 214.878 300.881 226.849 305.401C238.943 309.92 250.487 316.089 261.482 323.908C272.598 331.604 281.76 341.499 288.967 353.592C296.175 365.686 299.778 380.528 299.778 398.119C299.778 418.398 294.465 436.722 283.837 453.091C273.331 469.46 257.939 482.47 237.661 492.121C217.504 501.771 193.011 506.597 164.182 506.597C137.307 506.597 114.036 502.26 94.3679 493.587C74.8224 484.913 59.4304 472.82 48.1918 457.305C37.0753 441.791 30.7841 423.773 29.3182 403.25H76.2273C77.4489 417.42 82.2131 429.148 90.5199 438.432C98.9489 447.594 109.577 454.435 122.403 458.955C135.352 463.352 149.278 465.551 164.182 465.551C181.528 465.551 197.104 462.741 210.908 457.122C224.712 451.381 235.645 443.44 243.707 433.301C251.77 423.04 255.801 411.068 255.801 397.386C255.801 384.926 252.32 374.787 245.357 366.969C238.393 359.151 229.232 352.798 217.871 347.912C206.51 343.026 194.233 338.75 181.04 335.085L134.864 321.892C105.545 313.463 82.3352 301.43 65.233 285.794C48.1307 270.158 39.5795 249.696 39.5795 224.409C39.5795 203.398 45.2599 185.074 56.6207 169.438C68.1037 153.679 83.4957 141.463 102.797 132.79C122.22 123.994 143.903 119.597 167.847 119.597C192.034 119.597 213.534 123.933 232.347 132.607C251.159 141.158 266.063 152.885 277.057 167.788C288.173 182.692 294.037 199.611 294.648 218.545H250.67ZM327.35 500V218.545H370.595V500H327.35ZM349.339 171.636C340.91 171.636 333.642 168.766 327.534 163.024C321.548 157.283 318.555 150.381 318.555 142.318C318.555 134.256 321.548 127.354 327.534 121.612C333.642 115.871 340.91 113 349.339 113C357.768 113 364.975 115.871 370.961 121.612C377.069 127.354 380.123 134.256 380.123 142.318C380.123 150.381 377.069 157.283 370.961 163.024C364.975 168.766 357.768 171.636 349.339 171.636ZM451.764 124.727V500H408.52V124.727H451.764ZM607.694 505.864C580.575 505.864 557.182 499.878 537.514 487.906C517.969 475.812 502.882 458.955 492.254 437.332C481.748 415.588 476.496 390.301 476.496 361.472C476.496 332.642 481.748 307.233 492.254 285.244C502.882 263.134 517.663 245.909 536.598 233.571C555.655 221.111 577.888 214.881 603.297 214.881C617.956 214.881 632.432 217.324 646.724 222.21C661.017 227.097 674.027 235.037 685.754 246.031C697.481 256.903 706.827 271.318 713.79 289.276C720.753 307.233 724.234 329.344 724.234 355.608V373.932H507.28V336.551H680.257C680.257 320.67 677.081 306.5 670.729 294.04C664.498 281.58 655.581 271.746 643.976 264.538C632.493 257.331 618.933 253.727 603.297 253.727C586.072 253.727 571.169 258.003 558.586 266.554C546.126 274.983 536.537 285.977 529.818 299.537C523.099 313.097 519.74 327.634 519.74 343.148V368.068C519.74 389.324 523.405 407.342 530.734 422.124C538.186 436.783 548.508 447.96 561.702 455.656C574.895 463.23 590.226 467.017 607.694 467.017C619.055 467.017 629.317 465.429 638.479 462.253C647.763 458.955 655.764 454.068 662.483 447.594C669.202 440.997 674.393 432.812 678.058 423.04L719.837 434.767C715.439 448.938 708.048 461.398 697.665 472.148C687.281 482.776 674.454 491.082 659.185 497.068C643.915 502.932 626.751 505.864 607.694 505.864ZM639.211 184.83L601.098 133.523L562.984 184.83H521.939V181.898L581.308 105.67H620.888L680.257 181.898V184.83H639.211ZM791.981 330.688V500H748.737V218.545H790.515V262.523H794.18C800.777 248.23 810.794 236.747 824.231 228.074C837.669 219.278 855.015 214.881 876.271 214.881C895.328 214.881 912.003 218.79 926.295 226.608C940.588 234.304 951.704 246.031 959.645 261.79C967.585 277.426 971.555 297.216 971.555 321.159V500H928.311V324.091C928.311 301.98 922.569 284.756 911.086 272.418C899.603 259.957 883.845 253.727 863.811 253.727C850.007 253.727 837.669 256.72 826.797 262.706C816.047 268.692 807.556 277.426 801.326 288.909C795.096 300.392 791.981 314.318 791.981 330.688ZM1123.64 505.864C1097.25 505.864 1074.53 499.634 1055.47 487.173C1036.42 474.713 1021.76 457.55 1011.5 435.683C1001.23 413.817 996.104 388.835 996.104 360.739C996.104 332.153 1001.36 306.928 1011.86 285.061C1022.49 263.072 1037.27 245.909 1056.21 233.571C1075.26 221.111 1097.5 214.881 1122.9 214.881C1142.69 214.881 1160.53 218.545 1176.41 225.875C1192.29 233.205 1205.3 243.466 1215.44 256.659C1225.58 269.852 1231.87 285.244 1234.31 302.835H1191.07C1187.77 290.009 1180.44 278.648 1169.08 268.753C1157.84 258.736 1142.69 253.727 1123.64 253.727C1106.78 253.727 1092 258.125 1079.29 266.92C1066.71 275.594 1056.88 287.871 1049.79 303.751C1042.83 319.51 1039.35 338.017 1039.35 359.273C1039.35 381.017 1042.77 399.952 1049.61 416.077C1056.57 432.202 1066.35 444.723 1078.93 453.641C1091.63 462.558 1106.54 467.017 1123.64 467.017C1134.88 467.017 1145.08 465.062 1154.24 461.153C1163.4 457.244 1171.16 451.625 1177.51 444.295C1183.86 436.966 1188.38 428.17 1191.07 417.909H1234.31C1231.87 434.523 1225.82 449.487 1216.17 462.803C1206.64 475.996 1194 486.501 1178.24 494.32C1162.61 502.016 1144.4 505.864 1123.64 505.864ZM1256.25 500V218.545H1299.5V500H1256.25ZM1278.24 171.636C1269.81 171.636 1262.54 168.766 1256.43 163.024C1250.45 157.283 1247.46 150.381 1247.46 142.318C1247.46 134.256 1250.45 127.354 1256.43 121.612C1262.54 115.871 1269.81 113 1278.24 113C1286.67 113 1293.88 115.871 1299.86 121.612C1305.97 127.354 1309.02 134.256 1309.02 142.318C1309.02 150.381 1305.97 157.283 1299.86 163.024C1293.88 168.766 1286.67 171.636 1278.24 171.636ZM1451.76 505.864C1426.35 505.864 1404.06 499.817 1384.88 487.723C1365.82 475.629 1350.92 458.71 1340.17 436.966C1329.54 415.222 1324.23 389.812 1324.23 360.739C1324.23 331.42 1329.54 305.828 1340.17 283.962C1350.92 262.095 1365.82 245.115 1384.88 233.021C1404.06 220.928 1426.35 214.881 1451.76 214.881C1477.17 214.881 1499.4 220.928 1518.46 233.021C1537.64 245.115 1552.54 262.095 1563.17 283.962C1573.92 305.828 1579.3 331.42 1579.3 360.739C1579.3 389.812 1573.92 415.222 1563.17 436.966C1552.54 458.71 1537.64 475.629 1518.46 487.723C1499.4 499.817 1477.17 505.864 1451.76 505.864ZM1451.76 467.017C1471.06 467.017 1486.94 462.07 1499.4 452.175C1511.86 442.28 1521.09 429.27 1527.07 413.145C1533.06 397.02 1536.05 379.551 1536.05 360.739C1536.05 341.926 1533.06 324.396 1527.07 308.149C1521.09 291.902 1511.86 278.77 1499.4 268.753C1486.94 258.736 1471.06 253.727 1451.76 253.727C1432.46 253.727 1416.58 258.736 1404.12 268.753C1391.66 278.77 1382.44 291.902 1376.45 308.149C1370.46 324.396 1367.47 341.926 1367.47 360.739C1367.47 379.551 1370.46 397.02 1376.45 413.145C1382.44 429.27 1391.66 442.28 1404.12 452.175C1416.58 462.07 1432.46 467.017 1451.76 467.017Z" fill="white"/>
<rect x="1683" y="42" width="890" height="540" rx="112" fill="url(#paint0_linear_390_5)"/>
<path d="M1848.69 422H1781.4V203.968H1851.67C1872.82 203.968 1890.92 208.333 1905.96 217.062C1921.01 225.721 1932.54 238.177 1940.56 254.43C1948.58 270.612 1952.59 289.988 1952.59 312.558C1952.59 335.27 1948.55 354.823 1940.46 371.218C1932.36 387.542 1920.58 400.105 1905.11 408.905C1889.64 417.635 1870.83 422 1848.69 422ZM1807.8 398.579H1846.98C1865.01 398.579 1879.95 395.101 1891.8 388.145C1903.66 381.19 1912.49 371.289 1918.31 358.443C1924.13 345.596 1927.04 330.302 1927.04 312.558C1927.04 294.956 1924.17 279.803 1918.42 267.099C1912.67 254.324 1904.08 244.529 1892.65 237.716C1881.23 230.831 1867 227.389 1849.96 227.389H1807.8V398.579ZM1969.49 422V258.476H1994.61V422H1969.49ZM1982.26 231.222C1977.37 231.222 1973.14 229.554 1969.6 226.218C1966.12 222.882 1964.38 218.872 1964.38 214.188C1964.38 209.504 1966.12 205.494 1969.6 202.158C1973.14 198.822 1977.37 197.154 1982.26 197.154C1987.16 197.154 1991.35 198.822 1994.83 202.158C1998.38 205.494 2000.15 209.504 2000.15 214.188C2000.15 218.872 1998.38 222.882 1994.83 226.218C1991.35 229.554 1987.16 231.222 1982.26 231.222ZM2082.65 486.728C2070.52 486.728 2060.08 485.167 2051.35 482.044C2042.62 478.992 2035.35 474.947 2029.53 469.907C2023.78 464.939 2019.2 459.616 2015.8 453.938L2035.81 439.885C2038.08 442.866 2040.96 446.273 2044.43 450.106C2047.91 454.009 2052.67 457.381 2058.7 460.22C2064.8 463.129 2072.79 464.584 2082.65 464.584C2095.86 464.584 2106.75 461.391 2115.34 455.003C2123.93 448.615 2128.22 438.608 2128.22 424.981V391.765H2126.09C2124.24 394.746 2121.62 398.437 2118.21 402.837C2114.88 407.166 2110.05 411.035 2103.73 414.441C2097.49 417.777 2089.04 419.445 2078.4 419.445C2065.19 419.445 2053.34 416.322 2042.84 410.076C2032.4 403.831 2024.14 394.746 2018.03 382.822C2012 370.899 2008.98 356.42 2008.98 339.386C2008.98 322.636 2011.93 308.051 2017.82 295.631C2023.71 283.139 2031.91 273.487 2042.41 266.673C2052.92 259.789 2065.05 256.347 2078.82 256.347C2089.47 256.347 2097.91 258.121 2104.16 261.67C2110.48 265.147 2115.3 269.122 2118.64 273.593C2122.04 277.994 2124.67 281.613 2126.52 284.452H2129.07V258.476H2153.34V426.684C2153.34 440.737 2150.15 452.164 2143.76 460.965C2137.45 469.837 2128.93 476.331 2118.21 480.447C2107.57 484.635 2095.71 486.728 2082.65 486.728ZM2081.8 396.875C2091.88 396.875 2100.4 394.569 2107.35 389.955C2114.31 385.342 2119.6 378.706 2123.22 370.047C2126.84 361.388 2128.65 351.026 2128.65 338.96C2128.65 327.179 2126.87 316.781 2123.32 307.767C2119.77 298.754 2114.52 291.692 2107.57 286.582C2100.61 281.471 2092.02 278.916 2081.8 278.916C2071.16 278.916 2062.28 281.613 2055.19 287.007C2048.16 292.401 2042.87 299.641 2039.32 308.725C2035.85 317.81 2034.11 327.888 2034.11 338.96C2034.11 350.316 2035.88 360.359 2039.43 369.089C2043.05 377.748 2048.37 384.561 2055.4 389.529C2062.5 394.427 2071.3 396.875 2081.8 396.875ZM2175.35 422V258.476H2200.48V422H2175.35ZM2188.13 231.222C2183.23 231.222 2179.01 229.554 2175.46 226.218C2171.98 222.882 2170.24 218.872 2170.24 214.188C2170.24 209.504 2171.98 205.494 2175.46 202.158C2179.01 198.822 2183.23 197.154 2188.13 197.154C2193.02 197.154 2197.21 198.822 2200.69 202.158C2204.24 205.494 2206.01 209.504 2206.01 214.188C2206.01 218.872 2204.24 222.882 2200.69 226.218C2197.21 229.554 2193.02 231.222 2188.13 231.222ZM2293.63 258.476V279.768H2208.88V258.476H2293.63ZM2233.58 219.298H2258.71V375.157C2258.71 382.255 2259.74 387.578 2261.8 391.126C2263.92 394.604 2266.62 396.946 2269.89 398.153C2273.22 399.288 2276.74 399.856 2280.43 399.856C2283.19 399.856 2285.46 399.714 2287.24 399.43C2289.01 399.075 2290.43 398.791 2291.5 398.579L2296.61 421.148C2294.9 421.787 2292.53 422.426 2289.48 423.065C2286.42 423.774 2282.56 424.129 2277.87 424.129C2270.77 424.129 2263.82 422.603 2257 419.551C2250.26 416.5 2244.65 411.851 2240.18 405.605C2235.78 399.359 2233.58 391.481 2233.58 381.971V219.298ZM2355.56 425.833C2345.2 425.833 2335.79 423.881 2327.35 419.977C2318.9 416.003 2312.19 410.289 2307.22 402.837C2302.26 395.314 2299.77 386.229 2299.77 375.583C2299.77 366.214 2301.62 358.62 2305.31 352.8C2309 346.909 2313.93 342.296 2320.11 338.96C2326.28 335.625 2333.09 333.14 2340.55 331.508C2348.07 329.805 2355.63 328.456 2363.22 327.463C2373.16 326.185 2381.21 325.227 2387.39 324.588C2393.64 323.878 2398.18 322.707 2401.02 321.075C2403.93 319.443 2405.38 316.604 2405.38 312.558V311.706C2405.38 301.202 2402.51 293.04 2396.76 287.22C2391.08 281.4 2382.46 278.49 2370.89 278.49C2358.89 278.49 2349.49 281.117 2342.68 286.369C2335.86 291.621 2331.07 297.228 2328.3 303.189L2304.46 294.673C2308.71 284.736 2314.39 277 2321.49 271.464C2328.66 265.857 2336.47 261.954 2344.91 259.753C2353.43 257.482 2361.8 256.347 2370.04 256.347C2375.29 256.347 2381.32 256.985 2388.13 258.263C2395.02 259.469 2401.66 261.989 2408.04 265.822C2414.5 269.654 2419.86 275.439 2424.12 283.175C2428.38 290.911 2430.51 301.273 2430.51 314.261V422H2405.38V399.856H2404.1C2402.4 403.405 2399.56 407.202 2395.59 411.247C2391.61 415.293 2386.32 418.735 2379.72 421.574C2373.12 424.413 2365.07 425.833 2355.56 425.833ZM2359.39 403.263C2369.33 403.263 2377.7 401.311 2384.51 397.407C2391.4 393.504 2396.58 388.465 2400.06 382.29C2403.61 376.115 2405.38 369.621 2405.38 362.808V339.812C2404.32 341.09 2401.97 342.261 2398.35 343.325C2394.81 344.319 2390.69 345.206 2386.01 345.987C2381.39 346.697 2376.89 347.335 2372.48 347.903C2368.16 348.4 2364.64 348.826 2361.95 349.181C2355.42 350.032 2349.31 351.416 2343.63 353.333C2338.03 355.178 2333.48 357.981 2330.01 361.743C2326.6 365.434 2324.9 370.473 2324.9 376.861C2324.9 385.59 2328.13 392.191 2334.58 396.662C2341.11 401.063 2349.38 403.263 2359.39 403.263ZM2477.51 203.968V422H2452.38V203.968H2477.51Z" fill="white"/>
<defs>
<linearGradient id="paint0_linear_390_5" x1="2128" y1="42" x2="2533" y2="623" gradientUnits="userSpaceOnUse">
<stop stop-color="#3C4C3B"/>
<stop offset="1" stop-color="#8DB28A"/>
</linearGradient>
</defs>
</svg>
